<?xml version="1.0" standalone="no"?>
   <!DOCTYPE svg PUBLIC "-//W3C//DTD SVG 1.1//EN" 
   "http://www.w3.org/Graphics/SVG/1.1/DTD/svg11.dtd"><svg id="svg" version="1.1" width="741" height="582" xmlns="http://www.w3.org/2000/svg"><path d="M73.307 58.500 C 70.894 64.275,67.762 69.000,66.346 69.000 C 61.099 69.000,59.698 97.741,64.503 106.818 C 67.690 112.839,68.593 120.097,67.450 130.500 C 66.544 138.750,66.969 147.236,68.394 149.357 C 69.820 151.479,102.602 161.283,141.243 171.144 C 248.432 198.499,291.766 210.368,300.000 214.626 C 310.974 220.302,328.512 239.604,336.106 254.364 C 341.375 264.605,342.437 270.689,341.316 284.212 C 340.541 293.554,338.353 301.716,336.454 302.349 C 334.554 302.982,333.000 307.825,333.000 313.112 C 333.000 320.106,334.430 322.837,338.250 323.142 C 349.198 324.015,418.155 342.648,428.244 347.459 L 438.793 352.489 436.800 379.495 C 435.705 394.348,433.976 420.000,432.958 436.500 C 431.350 462.568,430.183 467.438,424.054 473.659 C 416.194 481.636,414.858 492.488,421.099 497.667 C 426.988 502.554,542.235 532.066,556.354 532.302 C 569.422 532.520,569.740 532.135,582.180 501.059 C 590.054 481.388,588.978 454.185,579.111 423.483 C 569.912 394.857,570.889 371.182,582.205 348.537 C 587.268 338.406,595.569 327.155,600.652 323.536 L 609.894 316.955 635.697 322.464 C 684.354 332.852,687.770 332.042,664.489 315.631 C 632.594 293.150,630.916 265.524,660.456 249.248 C 667.630 245.296,674.030 241.630,674.678 241.103 C 677.284 238.982,668.298 231.458,664.774 232.810 C 657.319 235.671,632.456 224.456,621.120 213.120 C 609.736 201.736,609.635 201.432,612.622 187.426 C 616.170 170.793,612.838 166.646,598.500 169.846 C 593.550 170.951,584.775 171.766,579.000 171.657 C 568.619 171.461,568.597 171.488,577.004 174.038 C 581.681 175.456,587.756 175.829,590.504 174.867 C 594.562 173.446,594.799 173.873,591.766 177.142 C 588.649 180.503,584.492 180.318,566.581 176.019 C 554.782 173.188,544.545 171.455,543.832 172.168 C 543.118 172.882,550.064 175.151,559.267 177.210 C 568.722 179.326,576.000 182.596,576.000 184.727 C 576.000 186.802,577.688 189.103,579.750 189.839 C 581.813 190.576,582.801 191.950,581.946 192.893 C 580.042 194.994,518.677 178.148,516.243 174.857 C 515.284 173.560,509.586 172.269,503.580 171.986 C 497.574 171.704,481.722 168.521,468.354 164.914 C 444.688 158.528,444.097 158.147,445.946 150.428 C 446.990 146.067,448.013 142.254,448.219 141.953 C 448.426 141.652,474.223 148.057,505.547 156.186 C 536.871 164.315,563.756 170.555,565.292 170.053 C 566.828 169.550,541.211 162.167,508.366 153.645 C 472.897 144.443,447.550 139.250,445.943 140.857 C 444.337 142.463,440.220 142.414,435.806 140.736 C 431.718 139.182,406.577 132.462,379.937 125.803 C 353.297 119.143,306.080 106.896,275.011 98.586 C 243.942 90.277,217.891 84.109,217.119 84.881 C 216.347 85.653,224.928 88.542,236.188 91.301 C 247.448 94.060,258.649 97.685,261.080 99.356 C 264.596 101.771,264.272 102.085,259.500 100.887 C 247.354 97.837,135.627 68.939,108.495 61.829 C 78.587 53.992,68.799 49.310,88.500 52.265 C 97.191 53.568,98.846 53.287,94.500 51.243 C 83.050 45.859,77.844 47.641,73.307 58.500 M109.617 53.614 C 102.182 55.208,106.028 56.891,133.195 63.931 C 151.048 68.558,166.409 71.591,167.328 70.672 C 168.248 69.752,166.817 69.000,164.149 69.000 C 161.481 69.000,158.219 67.116,156.899 64.813 C 154.842 61.224,125.137 50.329,120.205 51.355 C 119.267 51.550,114.502 52.567,109.617 53.614 M141.000 60.293 C 143.801 61.914,141.535 62.194,135.000 61.036 C 129.225 60.012,122.475 57.952,120.000 56.457 C 114.142 52.919,134.769 56.687,141.000 60.293 M174.439 82.142 C 221.222 94.206,280.761 109.347,306.747 115.788 C 334.231 122.601,353.995 128.972,353.997 131.020 C 354.003 138.079,338.271 152.977,327.357 156.248 C 317.350 159.246,307.698 157.520,236.828 140.060 C 150.888 118.888,135.702 115.475,138.000 117.848 C 138.825 118.700,180.000 129.757,229.500 142.419 C 279.000 155.080,329.010 167.973,340.633 171.069 C 428.126 194.377,426.463 194.239,436.457 178.987 L 440.914 172.184 476.716 181.262 C 511.061 189.971,512.589 190.695,514.259 199.045 C 517.288 214.189,516.249 252.000,512.804 252.000 C 510.799 252.000,509.763 243.899,510.024 230.250 C 510.577 201.293,510.474 200.353,507.000 202.500 C 505.350 203.520,504.000 215.074,504.000 228.177 C 504.000 242.610,502.775 252.000,500.892 252.000 C 498.824 252.000,498.477 242.830,499.853 224.596 C 501.576 201.771,501.218 197.426,497.711 198.588 C 494.622 199.612,493.269 206.914,492.633 225.992 C 492.083 242.509,490.553 252.000,488.440 252.000 C 486.099 252.000,485.707 243.567,487.118 223.500 C 488.756 200.197,488.360 195.000,484.948 195.000 C 481.874 195.000,480.079 202.312,478.137 222.750 L 475.500 250.500 474.641 221.250 C 474.167 205.077,472.490 192.000,470.891 192.000 C 469.301 192.000,467.988 197.063,467.974 203.250 C 467.929 222.473,464.305 245.925,461.634 244.274 C 460.233 243.408,459.944 230.617,460.993 215.850 C 462.289 197.589,461.871 189.000,459.688 189.000 C 457.922 189.000,455.696 197.438,454.740 207.750 C 451.449 243.269,450.898 244.414,450.449 216.656 C 449.930 184.489,446.830 180.632,432.783 194.678 C 427.825 199.636,420.540 204.503,416.595 205.493 C 412.114 206.618,357.148 193.723,270.193 171.147 C 193.618 151.266,129.868 135.000,128.526 135.000 C 127.184 135.000,124.557 141.075,122.687 148.500 C 120.817 155.925,118.435 161.969,117.394 161.931 C 116.352 161.894,106.050 159.445,94.500 156.490 L 73.500 151.118 73.500 134.809 L 73.500 118.500 87.000 118.970 L 100.500 119.440 84.425 114.699 L 68.350 109.958 69.923 98.231 C 70.788 91.782,72.220 85.780,73.105 84.895 C 74.363 83.637,271.567 133.620,317.308 146.790 C 322.702 148.344,326.443 148.526,325.620 147.195 C 324.798 145.864,319.938 143.938,314.821 142.914 C 306.224 141.195,305.889 140.683,310.405 136.167 C 314.123 132.449,318.279 131.757,327.783 133.277 C 349.211 136.704,338.954 132.874,301.500 123.464 C 232.955 106.242,80.094 65.794,77.504 64.193 C 72.967 61.389,78.272 56.682,83.941 58.481 C 86.931 59.430,127.655 70.077,174.439 82.142 M75.366 77.025 C 72.752 81.521,72.166 81.651,72.091 77.750 C 71.994 72.698,75.149 68.149,77.275 70.275 C 77.976 70.976,77.117 74.014,75.366 77.025 M181.565 76.210 C 188.200 78.417,198.325 81.028,204.065 82.012 C 214.014 83.719,213.938 83.615,202.435 79.790 C 195.800 77.583,185.675 74.972,179.935 73.988 C 169.986 72.281,170.062 72.385,181.565 76.210 M440.750 145.813 C 444.015 148.914,436.520 151.113,423.678 150.823 C 395.714 150.190,362.800 136.200,370.697 128.303 C 372.266 126.734,437.947 143.151,440.750 145.813 M364.410 131.855 C 365.381 133.425,362.103 139.163,357.126 144.605 L 348.078 154.500 353.289 141.781 C 358.541 128.960,361.171 126.613,364.410 131.855 M404.250 152.063 C 422.813 156.558,438.000 161.176,438.000 162.325 C 438.000 165.048,420.844 171.000,412.994 171.000 C 404.568 171.000,368.077 161.858,364.952 158.964 C 362.200 156.415,365.085 144.035,368.452 143.945 C 369.578 143.915,385.688 147.568,404.250 152.063 M354.000 162.000 C 354.000 163.650,348.263 164.979,341.250 164.954 C 331.913 164.920,329.704 164.130,333.000 162.000 C 338.923 158.172,354.000 158.172,354.000 162.000 M394.500 172.302 L 421.500 179.456 405.979 179.728 C 385.614 180.085,360.000 174.100,360.000 168.985 C 360.000 163.662,362.972 163.948,394.500 172.302 M533.438 170.049 C 535.603 170.916,538.191 170.809,539.188 169.813 C 540.184 168.816,538.413 168.107,535.250 168.237 C 531.755 168.381,531.044 169.092,533.438 170.049 M588.000 186.000 C 588.000 187.650,586.730 189.000,585.177 189.000 C 583.624 189.000,581.520 187.650,580.500 186.000 C 579.480 184.350,580.751 183.000,583.323 183.000 C 585.895 183.000,588.000 184.350,588.000 186.000 M553.551 202.273 C 558.082 204.624,571.398 208.858,583.144 211.683 C 594.890 214.508,606.188 218.151,608.250 219.777 C 612.707 223.293,613.115 236.659,608.958 243.000 C 606.818 246.265,606.470 245.030,607.690 238.500 C 610.103 225.592,604.414 220.486,581.383 214.889 C 550.792 207.454,551.359 207.212,552.509 227.250 L 553.500 244.500 569.066 246.066 C 583.690 247.537,594.921 252.000,584.000 252.000 C 581.250 252.000,579.000 254.025,579.000 256.500 C 579.000 258.975,577.650 261.000,576.000 261.000 C 574.350 261.000,573.000 258.975,573.000 256.500 C 573.000 253.500,570.000 252.000,564.000 252.000 C 552.423 252.000,543.160 242.667,542.414 230.250 C 540.258 194.355,539.921 195.202,553.551 202.273 M600.750 202.683 C 609.118 204.679,612.445 213.000,604.875 213.000 C 591.774 213.000,582.000 208.908,582.000 203.423 C 582.000 199.279,583.517 198.046,587.250 199.155 C 590.138 200.013,596.213 201.601,600.750 202.683 M344.625 223.875 C 351.125 225.175,354.000 227.475,354.000 231.375 C 354.000 235.170,356.147 237.000,360.600 237.000 C 365.516 237.000,366.333 237.867,363.802 240.398 C 359.294 244.906,350.806 241.405,348.939 234.267 C 347.980 230.598,343.693 227.860,336.917 226.589 C 331.126 225.502,325.787 225.213,325.054 225.946 C 324.320 226.680,328.359 228.150,334.030 229.214 C 340.674 230.460,344.877 233.206,345.853 236.937 C 349.000 248.971,372.000 247.101,372.000 234.812 C 372.000 231.931,373.724 231.020,376.880 232.231 C 379.564 233.260,398.126 238.210,418.130 243.229 C 438.133 248.248,474.275 257.674,498.444 264.177 C 548.327 277.598,549.000 277.693,549.000 271.323 C 549.000 268.751,550.350 267.480,552.000 268.500 C 553.650 269.520,555.000 272.974,555.000 276.177 C 555.000 279.380,556.350 282.000,558.000 282.000 C 559.650 282.000,561.000 279.300,561.000 276.000 C 561.000 267.911,566.337 268.331,567.541 276.515 C 568.983 286.310,575.381 286.594,576.834 276.928 C 578.046 268.864,578.120 268.921,578.551 278.250 C 579.111 290.410,587.061 291.568,588.851 279.750 C 590.014 272.071,590.132 272.175,590.551 281.250 C 591.150 294.251,600.000 294.953,600.000 282.000 C 600.000 277.050,601.431 273.000,603.180 273.000 C 605.041 273.000,605.761 276.800,604.916 282.164 C 603.709 289.825,604.695 291.793,610.931 294.164 C 625.481 299.696,627.000 298.297,627.000 279.375 C 627.000 269.681,627.955 257.194,629.123 251.625 L 631.246 241.500 633.268 250.500 C 635.109 258.694,635.322 258.358,635.645 246.750 C 635.871 238.636,634.691 234.000,632.400 234.000 C 630.091 234.000,629.837 232.963,631.690 231.110 C 633.544 229.256,638.332 229.533,645.040 231.884 C 664.164 238.584,664.363 239.506,649.636 253.221 C 639.091 263.041,636.000 268.037,636.000 275.264 C 636.000 288.596,640.085 297.623,651.104 308.642 C 656.399 313.937,659.876 319.124,658.831 320.169 C 657.785 321.215,646.153 320.319,632.980 318.180 C 611.803 314.741,608.182 314.846,601.714 319.084 C 592.145 325.354,580.389 340.943,574.375 355.336 C 569.984 365.845,569.149 366.435,564.810 362.095 C 560.470 357.756,560.496 356.213,565.109 344.420 C 567.889 337.314,571.814 329.467,573.831 326.982 C 582.461 316.353,598.049 305.997,605.480 305.954 C 611.760 305.918,612.524 305.277,609.000 303.000 C 606.525 301.401,594.586 300.071,582.469 300.046 C 562.982 300.005,560.257 299.307,558.869 294.000 C 556.882 286.400,544.372 286.012,529.527 293.091 C 519.334 297.952,517.763 297.896,494.864 291.867 C 473.690 286.291,470.358 286.071,466.439 289.990 C 463.998 292.431,462.000 297.710,462.000 301.722 C 462.000 305.733,459.401 337.024,456.225 371.257 C 453.048 405.491,449.545 444.504,448.439 457.954 L 446.428 482.408 462.464 487.009 C 471.284 489.539,489.975 494.485,504.000 498.000 C 550.559 509.668,561.000 513.279,561.000 517.713 C 561.000 520.071,560.279 522.000,559.398 522.000 C 558.517 522.000,533.880 515.774,504.648 508.164 C 434.528 489.910,418.138 481.622,431.215 471.032 C 436.299 466.916,437.308 462.906,436.943 448.268 C 436.699 438.496,437.664 412.145,439.087 389.711 L 441.674 348.921 429.183 343.923 C 412.445 337.226,415.997 331.696,435.384 334.268 C 445.530 335.614,450.000 335.151,450.000 332.753 C 450.000 330.777,447.434 329.971,444.000 330.869 C 436.603 332.804,436.602 332.867,444.260 318.175 C 449.631 307.869,450.033 304.691,447.093 295.780 C 442.962 283.264,424.590 265.956,410.642 261.441 C 405.064 259.636,392.230 256.256,382.123 253.932 C 365.349 250.075,363.846 250.133,364.885 254.603 C 365.523 257.346,362.657 261.918,358.368 264.998 C 348.057 272.404,343.104 267.933,340.479 248.849 C 338.900 237.363,337.225 234.000,333.086 234.000 C 327.047 234.000,320.012 226.988,323.026 223.974 C 325.503 221.497,332.572 221.464,344.625 223.875 M601.491 230.973 C 602.534 234.258,602.545 238.308,601.517 239.973 C 598.538 244.792,585.825 243.478,583.776 238.138 C 582.342 234.400,583.307 233.642,587.955 234.858 C 591.280 235.727,594.000 235.215,594.000 233.719 C 594.000 232.224,591.975 231.000,589.500 231.000 C 587.025 231.000,585.000 229.650,585.000 228.000 C 585.000 222.185,599.534 224.805,601.491 230.973 M375.459 241.336 C 378.056 244.096,411.281 252.719,412.937 251.063 C 413.648 250.352,407.766 248.186,399.865 246.249 C 391.964 244.313,382.800 241.947,379.500 240.992 C 376.200 240.036,374.381 240.191,375.459 241.336 M406.542 264.016 C 419.858 269.079,418.763 295.247,404.379 315.750 C 399.446 322.782,399.286 324.000,403.296 324.000 C 405.883 324.000,408.000 322.570,408.000 320.823 C 408.000 319.076,409.027 318.281,410.283 319.057 C 413.743 321.195,420.958 314.878,431.077 300.851 C 436.096 293.894,441.056 289.056,442.101 290.101 C 446.321 294.321,443.905 317.156,438.745 321.826 C 426.352 333.041,417.855 333.589,387.369 325.137 C 349.360 314.599,346.381 311.750,350.852 290.211 C 356.772 261.695,376.290 252.514,406.542 264.016 M450.000 267.000 C 452.475 268.599,455.850 269.908,457.500 269.908 C 459.150 269.908,458.475 268.599,456.000 267.000 C 453.525 265.401,450.150 264.092,448.500 264.092 C 446.850 264.092,447.525 265.401,450.000 267.000 M351.000 276.000 C 351.000 277.650,349.650 279.000,348.000 279.000 C 346.350 279.000,345.000 277.650,345.000 276.000 C 345.000 274.350,346.350 273.000,348.000 273.000 C 349.650 273.000,351.000 274.350,351.000 276.000 M430.343 295.058 C 428.431 302.677,411.000 321.484,411.000 315.929 C 411.000 314.172,412.857 311.194,415.126 309.310 C 417.395 307.427,420.982 299.708,423.096 292.156 C 426.008 281.758,427.575 279.560,429.556 283.100 C 430.994 285.670,431.348 291.051,430.343 295.058 M346.296 298.533 C 343.604 312.882,347.412 316.450,373.769 324.274 C 402.933 332.932,400.373 335.027,370.092 327.283 C 355.582 323.573,344.606 318.922,341.581 315.202 C 337.056 309.638,337.046 308.306,341.456 298.577 C 347.512 285.217,348.796 285.205,346.296 298.533 M493.558 338.442 C 492.426 339.574,490.600 340.557,489.500 340.626 C 488.400 340.695,482.963 343.170,477.417 346.125 C 470.179 349.982,467.745 350.370,468.792 347.499 C 469.594 345.300,471.769 343.838,473.625 344.250 C 475.481 344.663,477.000 343.180,477.000 340.957 C 477.000 338.491,480.632 336.810,486.308 336.648 C 491.428 336.503,494.690 337.310,493.558 338.442 M508.644 348.279 C 514.013 358.660,514.071 358.464,504.752 361.329 C 499.314 363.000,497.437 361.909,495.077 355.701 C 493.466 351.466,491.360 348.000,490.397 348.000 C 489.434 348.000,489.445 349.293,490.421 350.872 C 491.397 352.452,488.234 355.794,483.391 358.298 C 475.478 362.390,474.403 362.378,472.792 358.180 C 470.023 350.964,470.545 350.181,477.000 351.869 C 480.565 352.802,483.000 351.961,483.000 349.798 C 483.000 346.725,494.256 340.408,501.673 339.319 C 502.868 339.144,506.005 343.175,508.644 348.279 M499.026 348.474 C 499.589 352.164,501.388 355.629,503.025 356.175 C 507.397 357.632,506.649 349.843,502.001 345.501 C 498.737 342.452,498.190 342.998,499.026 348.474 M523.434 355.821 C 527.031 361.311,527.615 364.585,525.391 366.809 C 523.167 369.033,521.269 367.468,519.021 361.556 C 517.261 356.925,515.106 351.980,514.233 350.568 C 510.131 343.931,518.938 348.959,523.434 355.821 M473.317 366.643 C 475.271 371.247,475.609 375.505,474.094 376.442 C 470.614 378.593,467.094 372.892,469.500 369.000 C 470.520 367.350,469.924 366.000,468.177 366.000 C 466.430 366.000,465.000 363.030,465.000 359.400 C 465.000 351.862,468.240 354.684,473.317 366.643 M495.000 364.310 C 495.000 366.485,497.089 369.999,499.642 372.118 C 503.332 375.180,503.489 376.462,500.408 378.366 C 497.771 379.995,494.938 377.681,491.551 371.132 C 486.586 361.530,486.910 355.354,492.207 358.628 C 493.743 359.577,495.000 362.134,495.000 364.310 M523.007 381.798 C 520.899 385.209,515.496 381.012,516.833 377.002 C 517.465 375.105,516.174 371.745,513.963 369.535 C 511.753 367.325,510.833 364.079,511.919 362.321 C 513.031 360.523,516.197 363.580,519.161 369.312 C 522.058 374.914,523.789 380.533,523.007 381.798 M490.635 377.222 C 497.076 392.841,497.134 393.789,491.770 395.577 C 489.321 396.393,488.650 394.662,489.764 390.402 C 490.932 385.936,490.057 384.000,486.869 384.000 C 483.828 384.000,482.808 382.058,483.819 378.194 C 484.696 374.837,483.578 371.713,481.168 370.788 C 475.910 368.770,475.700 363.000,480.885 363.000 C 483.022 363.000,487.409 369.400,490.635 377.222 M509.438 371.813 C 510.188 374.063,509.063 375.188,506.813 374.438 C 504.647 373.716,502.284 371.353,501.563 369.188 C 500.813 366.938,501.938 365.813,504.188 366.563 C 506.353 367.284,508.716 369.647,509.438 371.813 M539.894 371.803 C 543.863 379.219,543.893 384.906,539.951 382.470 C 538.274 381.433,537.457 379.666,538.136 378.543 C 538.815 377.419,537.230 374.519,534.614 372.098 C 530.397 368.196,530.082 368.281,531.835 372.848 C 533.150 376.276,532.337 378.000,529.406 378.000 C 524.042 378.000,523.524 370.096,528.750 367.987 C 535.263 365.359,536.711 365.854,539.894 371.803 M469.423 380.851 C 475.076 391.783,475.102 393.000,469.677 393.000 C 463.414 393.000,460.525 386.776,465.366 383.711 C 468.360 381.814,468.466 381.079,465.750 381.046 C 463.688 381.021,462.000 378.975,462.000 376.500 C 462.000 369.678,464.360 371.061,469.423 380.851 M480.000 381.000 C 480.000 386.245,480.968 388.396,485.257 392.686 C 488.706 396.134,488.744 397.310,485.472 399.357 C 482.821 401.016,481.154 400.123,480.459 396.671 C 479.886 393.827,478.199 390.218,476.709 388.650 C 473.075 384.827,473.262 378.000,477.000 378.000 C 478.650 378.000,480.000 379.350,480.000 381.000 M516.191 386.001 C 519.444 394.559,519.024 395.140,503.485 403.565 C 497.293 406.922,495.129 407.068,493.972 404.205 C 493.144 402.158,492.368 402.992,492.237 406.071 C 492.087 409.598,490.440 411.043,487.748 410.010 C 485.410 409.113,482.719 410.404,481.769 412.880 C 479.972 417.565,474.000 415.867,474.000 410.670 C 474.000 407.598,493.603 398.187,500.250 398.067 C 502.313 398.030,504.000 396.731,504.000 395.179 C 504.000 393.628,506.025 393.135,508.500 394.085 C 513.542 396.020,514.856 388.501,510.000 385.500 C 506.083 383.079,506.133 378.000,510.074 378.000 C 511.765 378.000,514.517 381.600,516.191 386.001 M506.438 386.813 C 507.188 389.063,506.063 390.188,503.813 389.438 C 501.647 388.716,499.284 386.353,498.563 384.188 C 497.813 381.938,498.938 380.813,501.188 381.563 C 503.353 382.284,505.716 384.647,506.438 386.813 M538.150 387.750 C 539.568 392.925,540.613 393.550,542.625 390.430 C 544.180 388.019,545.988 387.553,547.060 389.288 C 548.055 390.898,542.179 395.687,534.002 399.930 C 525.824 404.172,518.391 406.441,517.483 404.972 C 515.791 402.235,527.698 394.215,531.750 395.363 C 534.839 396.238,534.495 392.408,531.000 387.000 C 528.515 383.154,528.085 383.263,528.046 387.750 C 528.021 390.638,526.650 393.000,525.000 393.000 C 520.682 393.000,521.297 384.784,525.750 382.987 C 533.263 379.955,536.338 381.137,538.150 387.750 M466.497 408.005 C 462.860 413.889,459.406 410.849,459.658 401.985 C 459.903 393.369,460.100 393.236,464.131 398.990 C 466.450 402.301,467.515 406.358,466.497 408.005 M477.000 400.750 C 477.000 406.048,470.542 405.125,468.688 399.563 C 468.034 397.603,469.638 396.000,472.250 396.000 C 474.863 396.000,477.000 398.138,477.000 400.750 M546.000 403.500 C 546.000 405.975,544.650 408.000,543.000 408.000 C 541.350 408.000,540.000 405.975,540.000 403.500 C 540.000 401.025,541.350 399.000,543.000 399.000 C 544.650 399.000,546.000 401.025,546.000 403.500 M517.500 411.000 C 521.399 418.540,521.468 420.000,517.927 420.000 C 515.602 420.000,512.867 416.963,511.850 413.250 C 510.358 407.805,509.462 407.337,507.216 410.827 C 505.304 413.799,505.916 416.240,509.171 418.619 C 512.535 421.079,512.907 422.703,510.454 424.219 C 508.555 425.393,505.650 425.520,504.000 424.500 C 502.350 423.480,501.000 424.188,501.000 426.073 C 501.000 427.958,499.313 428.881,497.250 428.125 C 495.188 427.369,493.838 425.231,494.250 423.375 C 495.208 419.064,488.213 418.987,483.939 423.261 C 481.782 425.418,480.043 425.497,478.807 423.497 C 477.778 421.833,480.994 418.447,485.953 415.973 C 494.121 411.898,495.265 411.947,498.127 416.488 C 500.859 420.821,501.067 420.681,499.664 415.452 C 498.520 411.190,500.028 408.421,504.771 406.071 C 508.472 404.237,511.803 402.571,512.173 402.368 C 512.543 402.166,514.940 406.050,517.500 411.000 M537.000 407.823 C 537.000 409.376,535.650 411.480,534.000 412.500 C 532.350 413.520,531.000 412.249,531.000 409.677 C 531.000 407.105,532.350 405.000,534.000 405.000 C 535.650 405.000,537.000 406.270,537.000 407.823 M533.194 421.440 C 537.206 429.399,538.706 435.446,536.938 436.538 C 535.316 437.541,532.564 434.613,530.822 430.032 C 528.480 423.873,527.006 422.754,525.163 425.736 C 523.792 427.954,521.311 428.928,519.650 427.902 C 517.988 426.875,515.855 428.052,514.909 430.517 C 512.950 435.620,507.000 436.621,507.000 431.847 C 507.000 430.113,512.063 426.545,518.250 423.918 C 524.438 421.291,527.813 418.548,525.750 417.821 C 523.688 417.095,522.000 414.588,522.000 412.250 C 522.000 404.408,526.447 408.059,533.194 421.440 M471.225 415.575 C 471.101 417.184,469.313 418.500,467.250 418.500 C 460.824 418.500,459.195 423.980,464.466 427.863 C 469.151 431.314,469.130 431.715,464.161 433.641 C 460.595 435.023,459.416 437.585,460.613 441.355 C 461.598 444.460,461.074 447.000,459.448 447.000 C 457.823 447.000,456.559 439.640,456.640 430.644 C 456.752 418.181,457.942 413.984,461.643 413.011 C 468.313 411.256,471.492 412.107,471.225 415.575 M549.000 414.177 C 549.000 415.924,547.791 416.607,546.314 415.694 C 544.837 414.781,542.897 415.940,542.004 418.269 C 541.110 420.598,542.404 423.281,544.880 424.231 C 547.355 425.180,548.540 427.317,547.513 428.979 C 544.676 433.569,540.912 432.601,538.848 426.750 C 537.829 423.863,536.247 419.926,535.332 418.002 C 533.905 415.002,537.801 412.732,546.750 411.348 C 547.988 411.157,549.000 412.430,549.000 414.177 M478.721 429.428 C 483.474 438.619,483.438 438.814,477.298 437.209 C 470.336 435.388,468.765 440.565,474.531 446.331 C 477.239 449.039,475.514 450.927,467.128 454.431 C 453.319 460.201,451.395 460.177,457.263 454.309 C 459.843 451.729,463.199 450.387,464.721 451.327 C 469.540 454.306,470.236 445.654,465.460 442.136 C 461.570 439.269,462.197 438.066,469.697 434.006 C 475.737 430.736,476.852 429.203,473.250 429.120 C 467.913 428.998,466.374 425.626,470.000 422.000 C 473.056 418.944,473.491 419.315,478.721 429.428 M491.313 429.563 C 489.458 435.125,483.000 436.048,483.000 430.750 C 483.000 428.138,485.138 426.000,487.750 426.000 C 490.363 426.000,491.966 427.603,491.313 429.563 M505.500 435.000 C 506.520 436.650,505.249 438.000,502.677 438.000 C 500.105 438.000,498.000 436.650,498.000 435.000 C 498.000 433.350,499.270 432.000,500.823 432.000 C 502.376 432.000,504.480 433.350,505.500 435.000 M528.450 436.500 C 528.450 438.068,526.999 439.834,525.225 440.425 C 523.451 441.016,522.000 439.250,522.000 436.500 C 522.000 433.750,523.451 431.984,525.225 432.575 C 526.999 433.166,528.450 434.933,528.450 436.500 M495.225 439.575 C 495.101 441.184,493.313 442.500,491.250 442.500 C 489.188 442.500,486.019 444.392,484.208 446.704 C 481.685 449.927,480.388 450.056,478.658 447.255 C 477.415 445.245,476.872 443.353,477.450 443.050 C 478.027 442.748,481.200 440.897,484.500 438.937 C 491.235 434.939,495.562 435.196,495.225 439.575 M519.990 439.252 C 520.887 441.590,519.793 444.205,517.559 445.062 C 513.363 446.673,509.027 439.973,512.207 436.793 C 515.200 433.800,518.269 434.769,519.990 439.252 M548.954 440.250 C 548.915 444.737,548.485 444.846,546.000 441.000 C 543.515 437.154,543.085 437.263,543.046 441.750 C 543.021 444.638,541.650 447.000,540.000 447.000 C 535.682 447.000,536.297 438.784,540.750 436.987 C 547.439 434.288,549.001 434.909,548.954 440.250 M512.167 448.945 C 516.034 457.274,514.643 463.369,509.588 460.245 C 507.940 459.227,507.273 456.616,508.106 454.445 C 508.939 452.273,507.681 449.752,505.311 448.842 C 500.014 446.810,499.597 440.991,504.750 441.023 C 506.813 441.036,510.150 444.601,512.167 448.945 M535.122 445.596 C 537.004 450.502,523.878 457.515,518.748 454.344 C 513.611 451.169,515.973 446.293,521.897 447.842 C 525.141 448.691,527.681 448.511,527.542 447.442 C 526.561 439.901,532.391 438.481,535.122 445.596 M496.677 454.702 C 488.980 460.383,483.000 460.154,483.000 454.179 C 483.000 451.251,484.670 449.999,487.252 450.990 C 489.590 451.887,492.334 450.456,493.350 447.809 C 494.813 443.997,495.956 443.767,498.848 446.700 C 501.723 449.616,501.261 451.318,496.677 454.702 M547.464 456.059 C 545.782 458.780,544.667 458.697,542.823 455.714 C 539.660 450.596,542.768 445.568,546.677 449.477 C 548.327 451.127,548.681 454.089,547.464 456.059 M480.990 457.252 C 482.847 462.093,475.128 466.252,472.419 461.869 C 470.378 458.566,473.162 453.000,476.856 453.000 C 478.232 453.000,480.092 454.913,480.990 457.252 M541.644 461.250 C 545.972 476.813,545.936 477.681,541.123 473.687 C 538.705 471.680,537.388 468.317,538.195 466.213 C 540.552 460.070,533.365 459.635,527.438 465.563 C 520.704 472.296,513.000 472.625,513.000 466.179 C 513.000 463.126,514.650 461.991,517.500 463.085 C 519.975 464.035,522.000 463.461,522.000 461.809 C 522.000 459.206,531.766 453.749,537.425 453.190 C 538.483 453.086,540.382 456.713,541.644 461.250 M505.623 459.200 C 508.384 463.667,505.183 466.096,499.439 463.892 C 496.788 462.875,495.460 460.683,496.487 459.021 C 498.919 455.087,503.132 455.169,505.623 459.200 M474.148 471.291 C 480.672 484.078,480.625 489.483,474.060 481.572 C 471.973 479.058,468.148 477.000,465.559 477.000 C 461.677 477.000,461.815 476.297,466.348 472.982 C 471.311 469.353,471.367 468.783,466.921 467.077 C 461.606 465.037,460.125 459.000,464.939 459.000 C 466.555 459.000,470.700 464.531,474.148 471.291 M462.000 468.354 C 462.000 470.004,460.650 470.520,459.000 469.500 C 457.350 468.480,456.000 466.296,456.000 464.646 C 456.000 462.996,457.350 462.480,459.000 463.500 C 460.650 464.520,462.000 466.704,462.000 468.354 M495.158 466.500 C 494.923 470.953,488.212 470.135,486.654 465.463 C 485.813 462.940,487.185 461.816,490.313 462.463 C 493.065 463.034,495.246 464.850,495.158 466.500 M484.307 471.323 C 483.835 481.560,502.587 489.053,507.899 480.750 C 511.113 475.726,516.000 475.982,516.000 481.175 C 516.000 485.869,505.586 489.293,496.500 487.586 C 493.200 486.966,489.150 486.345,487.500 486.206 C 484.535 485.956,477.000 472.283,477.000 467.152 C 477.000 465.693,478.688 465.095,480.750 465.823 C 482.813 466.550,484.413 469.025,484.307 471.323 M511.306 470.686 C 512.219 472.163,511.036 474.112,508.677 475.017 C 506.318 475.922,503.732 475.051,502.931 473.081 C 502.129 471.112,501.367 471.863,501.237 474.750 C 500.997 480.068,492.000 482.405,492.000 477.149 C 492.000 470.865,508.088 465.479,511.306 470.686 M534.225 472.575 C 534.101 474.184,532.313 475.500,530.250 475.500 C 528.188 475.500,525.330 477.349,523.900 479.610 C 521.769 482.977,520.859 483.008,518.864 479.780 C 517.260 477.184,518.659 474.608,522.964 472.231 C 530.367 468.144,534.556 468.272,534.225 472.575 M540.000 479.894 C 540.000 483.625,528.436 489.876,519.750 490.841 C 510.137 491.909,511.356 489.880,524.250 483.351 C 537.622 476.580,540.000 476.058,540.000 479.894 M427.092 497.908 C 425.441 499.559,420.113 491.823,420.046 487.677 C 420.021 486.124,421.915 487.472,424.255 490.672 C 426.595 493.872,427.871 497.129,427.092 497.908 " stroke="none" fill="black" fill-rule="evenodd"/></svg>